<?xml version="1.0" encoding="UTF-8" standalone="no"?><!DOCTYPE svg PUBLIC "-//W3C//DTD SVG 1.1//EN" "http://www.w3.org/Graphics/SVG/1.1/DTD/svg11.dtd"><svg width="100%" height="100%" viewBox="0 0 7763 6942" version="1.1" xmlns="http://www.w3.org/2000/svg" xmlns:xlink="http://www.w3.org/1999/xlink" xml:space="preserve" xmlns:serif="http://www.serif.com/" style="fill-rule:evenodd;clip-rule:evenodd;stroke-linejoin:round;stroke-miterlimit:2;"><rect id="Artboard1" x="0" y="0" width="7762.5" height="6941.67" style="fill:none;"/><path d="M7344.79,3470.83c1.041,71.354 -7.813,142.578 -26.563,211.459c-18.75,68.88 -47.135,134.896 -84.375,195.833c-37.109,60.938 -82.682,116.406 -135.286,164.714c-52.604,48.307 -111.719,88.932 -175.651,120.703c1.432,19.01 2.604,38.151 3.255,57.291c1.567,38.179 1.567,76.405 -0,114.584c-0.651,19.14 -1.823,38.281 -3.255,57.291c-0,1166.67 -1359.38,2114.58 -3036.46,2114.58c-1677.08,-0 -3036.46,-947.917 -3036.46,-2114.58c-1.432,-19.01 -2.604,-38.151 -3.255,-57.291c-1.568,-38.179 -1.568,-76.405 -0,-114.584c0.651,-19.14 1.823,-38.281 3.255,-57.291c-202.602,-93.128 -354.36,-270.759 -414.714,-485.417c-60.253,-214.756 -23.083,-445.499 101.563,-630.469c124.538,-184.942 324.375,-305.997 545.964,-330.729c221.614,-24.84 443.301,49.025 605.729,201.823c149.066,-101.037 305.247,-191.16 467.317,-269.661c162.11,-78.386 329.688,-145.053 501.433,-199.219c171.744,-54.167 347.265,-95.703 525,-124.479c177.734,-28.776 357.422,-44.532 537.5,-47.266l385.416,-1807.29c4.297,-20.963 12.761,-40.755 24.87,-58.463c11.979,-17.578 27.474,-32.683 45.313,-44.271c17.968,-11.589 38.02,-19.531 59.114,-23.438c20.964,-3.776 42.578,-3.385 63.412,1.172l1276.04,255.209c128.776,-221.224 399.089,-316.016 637.761,-223.828c238.672,92.187 375.13,344.14 321.745,594.401c-53.256,250.26 -280.599,424.739 -536.068,411.588c-255.599,-13.151 -463.802,-210.026 -491.146,-464.453l-1114.58,-234.375l-338.542,1625c177.865,3.776 355.339,20.443 530.859,49.74c351.489,58.589 692.686,167.614 1013.02,323.697c159.995,77.864 314.171,167.158 461.328,267.188c105.798,-101.577 238.781,-170.375 382.813,-198.047c144.033,-27.77 293.071,-13.25 429.036,41.797c135.98,55.02 253.172,148.24 337.37,268.359c84.223,120.129 131.896,262.11 137.24,408.724Zm-5168.75,720.183c26.302,63.151 64.583,120.573 113.02,168.88c48.308,48.437 105.73,86.719 168.881,113.021c63.209,26.14 130.948,39.591 199.349,39.583c210.677,0 400.52,-126.953 481.25,-321.484c80.599,-194.662 35.937,-418.62 -113.021,-567.578c-148.959,-148.959 -372.917,-193.62 -567.578,-113.021c-194.532,80.729 -321.485,270.573 -321.485,481.25c0,68.359 13.412,136.067 39.584,199.349Zm2983.07,1250.26c26.692,-26.042 41.927,-61.588 42.447,-98.828c0.521,-37.37 -13.932,-73.307 -39.973,-100c-26.042,-26.693 -61.589,-41.927 -98.829,-42.448c-37.369,-0.521 -73.307,13.932 -103.385,36.458c-78.317,56.175 -161.253,105.614 -247.917,147.787c-86.669,42.195 -176.746,76.997 -269.271,104.036c-92.447,26.953 -187.109,46.094 -282.812,57.162c-95.833,11.067 -192.318,13.932 -288.542,8.724c-96.093,4.297 -192.448,0.39 -287.89,-11.589c-95.466,-11.86 -189.736,-31.899 -281.771,-59.896c-92.188,-27.864 -181.641,-63.541 -267.708,-106.51c-86.068,-42.969 -168.36,-93.229 -245.964,-150.13c-26.953,-22.136 -61.198,-33.464 -96.094,-31.771c-34.896,1.693 -67.838,16.406 -92.578,41.015c-24.609,24.74 -39.323,57.683 -41.016,92.579c-1.692,34.895 9.636,69.14 31.771,96.093c91.537,69.011 188.802,129.948 290.756,182.292c101.953,52.344 208.333,95.703 317.708,129.818c109.375,34.114 221.484,58.724 335.156,73.698c113.672,14.843 228.386,19.922 342.839,15.234c114.453,4.688 229.166,-0.391 342.838,-15.234c227.669,-29.946 448.508,-98.788 652.865,-203.516c101.953,-52.344 199.219,-113.281 290.755,-182.292l-3.385,17.318Zm-95.573,-887.109c70.573,0.781 140.625,-12.891 205.859,-39.974c65.234,-27.214 124.219,-67.318 173.438,-117.969c49.218,-50.651 87.5,-110.807 112.76,-176.823c25.278,-65.937 36.842,-136.343 33.984,-206.901c0,-210.677 -126.953,-400.521 -321.484,-481.25c-194.662,-80.599 -418.62,-35.937 -567.578,113.021c-148.959,148.958 -193.62,372.916 -113.021,567.578c80.729,194.531 270.573,321.484 481.25,321.484l-5.208,20.834Z" style="fill:#fff;fill-rule:nonzero;"/></svg>